<svg version="1.1" xmlns="http://www.w3.org/2000/svg" xmlns:xlink="http://www.w3.org/1999/xlink" width="701" height="529"><defs/><g><g><rect fill="#C0C0C0" stroke="none" x="159" y="135" width="208" height="131" transform="matrix(1 0 0 1 -102 -110)" fill-opacity="0.2"/></g><g><rect fill="#ffffff" stroke="none" x="152" y="128" width="208" height="131" transform="matrix(1 0 0 1 -102 -110)"/></g><g><path fill="none" stroke="#000000" paint-order="fill stroke markers" d=" M 50 18 L 258 18 L 258 149 L 50 149 L 50 18 Z Z" stroke-miterlimit="10" stroke-dasharray=""/></g><g><path fill="none" stroke="#000000" paint-order="fill stroke markers" d=" M 50 43 L 258 43" stroke-miterlimit="10" stroke-dasharray=""/></g><g><path fill="none" stroke="#000000" paint-order="fill stroke markers" d=" M 50 96 L 258 96" stroke-miterlimit="10" stroke-dasharray=""/></g><g><g><path fill="none" stroke="none"/><text fill="#000000" stroke="none" font-family="Arial" font-size="13px" font-style="normal" font-weight="bold" text-decoration="undefined" x="256.5" y="141.5" text-anchor="middle" dominant-baseline="central" transform="matrix(1 0 0 1 -102 -110)">Users</text></g></g><g><g><path fill="none" stroke="none"/><text fill="#000000" stroke="none" font-family="Arial" font-size="13px" font-style="normal" font-weight="normal" text-decoration="undefined" x="157" y="164.5" text-anchor="start" dominant-baseline="central" transform="matrix(1 0 0 1 -102 -110)">-id: int</text></g></g><g><g><path fill="none" stroke="none"/><text fill="#000000" stroke="none" font-family="Arial" font-size="13px" font-style="normal" font-weight="normal" text-decoration="undefined" x="157" y="179.5" text-anchor="start" dominant-baseline="central" transform="matrix(1 0 0 1 -102 -110)">-email: string</text></g></g><g><g><path fill="none" stroke="none"/><text fill="#000000" stroke="none" font-family="Arial" font-size="13px" font-style="normal" font-weight="normal" text-decoration="undefined" x="157" y="194.5" text-anchor="start" dominant-baseline="central" transform="matrix(1 0 0 1 -102 -110)">-password: string</text></g></g><g><g><path fill="none" stroke="none"/><text fill="#000000" stroke="none" font-family="Arial" font-size="13px" font-style="normal" font-weight="normal" text-decoration="undefined" x="157" y="217.5" text-anchor="start" dominant-baseline="central" transform="matrix(1 0 0 1 -102 -110)">+login()</text></g></g><g><g><path fill="none" stroke="none"/><text fill="#000000" stroke="none" font-family="Arial" font-size="13px" font-style="normal" font-weight="normal" text-decoration="undefined" x="157" y="232.5" text-anchor="start" dominant-baseline="central" transform="matrix(1 0 0 1 -102 -110)">+signup()</text></g></g><g><g><path fill="none" stroke="none"/><text fill="#000000" stroke="none" font-family="Arial" font-size="13px" font-style="normal" font-weight="normal" text-decoration="undefined" x="157" y="247.5" text-anchor="start" dominant-baseline="central" transform="matrix(1 0 0 1 -102 -110)">+showUsers()</text></g></g><g><rect fill="#C0C0C0" stroke="none" x="591" y="127" width="208" height="152" transform="matrix(1 0 0 1 -102 -110)" fill-opacity="0.2"/></g><g><rect fill="#ffffff" stroke="none" x="584" y="120" width="208" height="152" transform="matrix(1 0 0 1 -102 -110)"/></g><g><path fill="none" stroke="#000000" paint-order="fill stroke markers" d=" M 482 10 L 690 10 L 690 162 L 482 162 L 482 10 Z Z" stroke-miterlimit="10" stroke-dasharray=""/></g><g><path fill="none" stroke="#000000" paint-order="fill stroke markers" d=" M 482 35 L 690 35" stroke-miterlimit="10" stroke-dasharray=""/></g><g><path fill="none" stroke="#000000" paint-order="fill stroke markers" d=" M 482 103 L 690 103" stroke-miterlimit="10" stroke-dasharray=""/></g><g><g><path fill="none" stroke="none"/><text fill="#000000" stroke="none" font-family="Arial" font-size="13px" font-style="normal" font-weight="bold" text-decoration="undefined" x="688.5" y="133.5" text-anchor="middle" dominant-baseline="central" transform="matrix(1 0 0 1 -102 -110)">Borrows</text></g></g><g><g><path fill="none" stroke="none"/><text fill="#000000" stroke="none" font-family="Arial" font-size="13px" font-style="normal" font-weight="normal" text-decoration="undefined" x="589" y="156.5" text-anchor="start" dominant-baseline="central" transform="matrix(1 0 0 1 -102 -110)">-id: int</text></g></g><g><g><path fill="none" stroke="none"/><text fill="#000000" stroke="none" font-family="Arial" font-size="13px" font-style="normal" font-weight="normal" text-decoration="undefined" x="589" y="171.5" text-anchor="start" dominant-baseline="central" transform="matrix(1 0 0 1 -102 -110)">-borrowDate: date</text></g></g><g><g><path fill="none" stroke="none"/><text fill="#000000" stroke="none" font-family="Arial" font-size="13px" font-style="normal" font-weight="normal" text-decoration="undefined" x="589" y="186.5" text-anchor="start" dominant-baseline="central" transform="matrix(1 0 0 1 -102 -110)">-dueDate: date</text></g></g><g><g><path fill="none" stroke="none"/><text fill="#000000" stroke="none" font-family="Arial" font-size="13px" font-style="normal" font-weight="normal" text-decoration="undefined" x="589" y="201.5" text-anchor="start" dominant-baseline="central" transform="matrix(1 0 0 1 -102 -110)">-returnDate: int</text></g></g><g><g><path fill="none" stroke="none"/><text fill="#000000" stroke="none" font-family="Arial" font-size="13px" font-style="normal" font-weight="normal" text-decoration="undefined" x="589" y="224.5" text-anchor="start" dominant-baseline="central" transform="matrix(1 0 0 1 -102 -110)">+isReturned()</text></g></g><g><g><path fill="none" stroke="none"/><text fill="#000000" stroke="none" font-family="Arial" font-size="13px" font-style="normal" font-weight="normal" text-decoration="undefined" x="589" y="239.5" text-anchor="start" dominant-baseline="central" transform="matrix(1 0 0 1 -102 -110)">+show()</text></g></g><g><rect fill="#C0C0C0" stroke="none" x="463" y="415" width="208" height="221" transform="matrix(1 0 0 1 -102 -110)" fill-opacity="0.2"/></g><g><rect fill="#ffffff" stroke="none" x="456" y="408" width="208" height="221" transform="matrix(1 0 0 1 -102 -110)"/></g><g><path fill="none" stroke="#000000" paint-order="fill stroke markers" d=" M 354 298 L 562 298 L 562 519 L 354 519 L 354 298 Z Z" stroke-miterlimit="10" stroke-dasharray=""/></g><g><path fill="none" stroke="#000000" paint-order="fill stroke markers" d=" M 354 323 L 562 323" stroke-miterlimit="10" stroke-dasharray=""/></g><g><path fill="none" stroke="#000000" paint-order="fill stroke markers" d=" M 354 391 L 562 391" stroke-miterlimit="10" stroke-dasharray=""/></g><g><g><path fill="none" stroke="none"/><text fill="#000000" stroke="none" font-family="Arial" font-size="13px" font-style="normal" font-weight="bold" text-decoration="undefined" x="560.5" y="421.5" text-anchor="middle" dominant-baseline="central" transform="matrix(1 0 0 1 -102 -110)">Books</text></g></g><g><g><path fill="none" stroke="none"/><text fill="#000000" stroke="none" font-family="Arial" font-size="13px" font-style="normal" font-weight="normal" text-decoration="undefined" x="461" y="444.5" text-anchor="start" dominant-baseline="central" transform="matrix(1 0 0 1 -102 -110)">-id: int</text></g></g><g><g><path fill="none" stroke="none"/><text fill="#000000" stroke="none" font-family="Arial" font-size="13px" font-style="normal" font-weight="normal" text-decoration="undefined" x="461" y="459.5" text-anchor="start" dominant-baseline="central" transform="matrix(1 0 0 1 -102 -110)">-title: string</text></g></g><g><g><path fill="none" stroke="none"/><text fill="#000000" stroke="none" font-family="Arial" font-size="13px" font-style="normal" font-weight="normal" text-decoration="undefined" x="461" y="474.5" text-anchor="start" dominant-baseline="central" transform="matrix(1 0 0 1 -102 -110)">-author: string</text></g></g><g><g><path fill="none" stroke="none"/><text fill="#000000" stroke="none" font-family="Arial" font-size="13px" font-style="normal" font-weight="normal" text-decoration="undefined" x="461" y="489.5" text-anchor="start" dominant-baseline="central" transform="matrix(1 0 0 1 -102 -110)">-status: string</text></g></g><g><g><path fill="none" stroke="none"/><text fill="#000000" stroke="none" font-family="Arial" font-size="13px" font-style="normal" font-weight="normal" text-decoration="undefined" x="461" y="512.5" text-anchor="start" dominant-baseline="central" transform="matrix(1 0 0 1 -102 -110)">+updateStatus()</text></g></g><g><g><path fill="none" stroke="none"/><text fill="#000000" stroke="none" font-family="Arial" font-size="13px" font-style="normal" font-weight="normal" text-decoration="undefined" x="461" y="527.5" text-anchor="start" dominant-baseline="central" transform="matrix(1 0 0 1 -102 -110)">+add()</text></g></g><g><g><path fill="none" stroke="none"/><text fill="#000000" stroke="none" font-family="Arial" font-size="13px" font-style="normal" font-weight="normal" text-decoration="undefined" x="461" y="542.5" text-anchor="start" dominant-baseline="central" transform="matrix(1 0 0 1 -102 -110)">+delete()</text></g></g><g><g><path fill="none" stroke="none"/><text fill="#000000" stroke="none" font-family="Arial" font-size="13px" font-style="normal" font-weight="normal" text-decoration="undefined" x="461" y="557.5" text-anchor="start" dominant-baseline="central" transform="matrix(1 0 0 1 -102 -110)">+update()</text></g></g><g><g><path fill="none" stroke="none"/><text fill="#000000" stroke="none" font-family="Arial" font-size="13px" font-style="normal" font-weight="normal" text-decoration="undefined" x="461" y="572.5" text-anchor="start" dominant-baseline="central" transform="matrix(1 0 0 1 -102 -110)">+filter()</text></g></g><g><g><path fill="none" stroke="none"/><text fill="#000000" stroke="none" font-family="Arial" font-size="13px" font-style="normal" font-weight="normal" text-decoration="undefined" x="461" y="587.5" text-anchor="start" dominant-baseline="central" transform="matrix(1 0 0 1 -102 -110)">+sort()</text></g></g><g><g><path fill="none" stroke="none"/><text fill="#000000" stroke="none" font-family="Arial" font-size="13px" font-style="normal" font-weight="normal" text-decoration="undefined" x="461" y="602.5" text-anchor="start" dominant-baseline="central" transform="matrix(1 0 0 1 -102 -110)">+borrow()</text></g></g><g><g><path fill="none" stroke="none"/><text fill="#000000" stroke="none" font-family="Arial" font-size="13px" font-style="normal" font-weight="normal" text-decoration="undefined" x="461" y="617.5" text-anchor="start" dominant-baseline="central" transform="matrix(1 0 0 1 -102 -110)">+show()</text></g></g><g><rect fill="#C0C0C0" stroke="none" x="119" y="463" width="208" height="131" transform="matrix(1 0 0 1 -102 -110)" fill-opacity="0.2"/></g><g><rect fill="#ffffff" stroke="none" x="112" y="456" width="208" height="131" transform="matrix(1 0 0 1 -102 -110)"/></g><g><path fill="none" stroke="#000000" paint-order="fill stroke markers" d=" M 10 346 L 218 346 L 218 477 L 10 477 L 10 346 Z Z" stroke-miterlimit="10" stroke-dasharray=""/></g><g><path fill="none" stroke="#000000" paint-order="fill stroke markers" d=" M 10 371 L 218 371" stroke-miterlimit="10" stroke-dasharray=""/></g><g><path fill="none" stroke="#000000" paint-order="fill stroke markers" d=" M 10 409 L 218 409" stroke-miterlimit="10" stroke-dasharray=""/></g><g><g><path fill="none" stroke="none"/><text fill="#000000" stroke="none" font-family="Arial" font-size="13px" font-style="normal" font-weight="bold" text-decoration="undefined" x="216.5" y="469.5" text-anchor="middle" dominant-baseline="central" transform="matrix(1 0 0 1 -102 -110)">Category</text></g></g><g><g><path fill="none" stroke="none"/><text fill="#000000" stroke="none" font-family="Arial" font-size="13px" font-style="normal" font-weight="normal" text-decoration="undefined" x="117" y="492.5" text-anchor="start" dominant-baseline="central" transform="matrix(1 0 0 1 -102 -110)">-id: int</text></g></g><g><g><path fill="none" stroke="none"/><text fill="#000000" stroke="none" font-family="Arial" font-size="13px" font-style="normal" font-weight="normal" text-decoration="undefined" x="117" y="507.5" text-anchor="start" dominant-baseline="central" transform="matrix(1 0 0 1 -102 -110)">-name: string</text></g></g><g><g><path fill="none" stroke="none"/><text fill="#000000" stroke="none" font-family="Arial" font-size="13px" font-style="normal" font-weight="normal" text-decoration="undefined" x="117" y="530.5" text-anchor="start" dominant-baseline="central" transform="matrix(1 0 0 1 -102 -110)">+add()</text></g></g><g><g><path fill="none" stroke="none"/><text fill="#000000" stroke="none" font-family="Arial" font-size="13px" font-style="normal" font-weight="normal" text-decoration="undefined" x="117" y="545.5" text-anchor="start" dominant-baseline="central" transform="matrix(1 0 0 1 -102 -110)">+update()</text></g></g><g><g><path fill="none" stroke="none"/><text fill="#000000" stroke="none" font-family="Arial" font-size="13px" font-style="normal" font-weight="normal" text-decoration="undefined" x="117" y="560.5" text-anchor="start" dominant-baseline="central" transform="matrix(1 0 0 1 -102 -110)">+delete()</text></g></g><g><g><path fill="none" stroke="none"/><text fill="#000000" stroke="none" font-family="Arial" font-size="13px" font-style="normal" font-weight="normal" text-decoration="undefined" x="117" y="575.5" text-anchor="start" dominant-baseline="central" transform="matrix(1 0 0 1 -102 -110)">+show()</text></g></g><g><path fill="none" stroke="#000000" paint-order="fill stroke markers" d=" M 555 163 L 502 297" stroke-miterlimit="10" stroke-dasharray=""/></g><g><path fill="#000000" stroke="none" paint-order="stroke fill markers" d=" M 501.8233622803514 286.00141831343706 L 502 297 L 509.65226996462593 289.0979265766203 L 510.09156603421775 276.5420783285815"/></g><g><path fill="none" stroke="#000000" paint-order="fill stroke markers" d=" M 501.8233622803514 286.00141831343706 L 502 297 L 509.65226996462593 289.0979265766203 L 510.09156603421775 276.5420783285815 L 501.8233622803514 286.00141831343706" stroke-miterlimit="10" stroke-dasharray=""/></g><g><path fill="none" stroke="#000000" paint-order="fill stroke markers" d=" M 219 410 L 353 409" stroke-miterlimit="10" stroke-dasharray=""/></g><g><path fill="#FFFFFF" stroke="none" paint-order="stroke fill markers" d=" M 342.86902155571977 413.285239288713 L 353 409 L 342.80619468193873 404.86643820205074 L 331.00061258301207 409.16417453296265"/></g><g><path fill="none" stroke="#000000" paint-order="fill stroke markers" d=" M 342.86902155571977 413.285239288713 L 353 409 L 342.80619468193873 404.86643820205074 L 331.00061258301207 409.16417453296265 L 342.86902155571977 413.285239288713" stroke-miterlimit="10" stroke-dasharray=""/></g><g><g><path fill="none" stroke="none"/><text fill="#000000" stroke="none" font-family="Arial" font-size="13px" font-style="normal" font-weight="normal" text-decoration="undefined" x="621" y="389" text-anchor="start" dominant-baseline="text-before-edge" transform="matrix(1 0 0 1 -102 -110)">0..*</text></g></g><g><path fill="none" stroke="#000000" paint-order="fill stroke markers" d=" M 259 84 L 481 85" stroke-miterlimit="10" stroke-dasharray=""/></g><g><g><path fill="none" stroke="none"/><text fill="#000000" stroke="none" font-family="Arial" font-size="13px" font-style="normal" font-weight="normal" text-decoration="undefined" x="493" y="501" text-anchor="start" dominant-baseline="text-before-edge" transform="matrix(1 0 0 1 -102 -110)">1</text></g></g><g><g><path fill="none" stroke="none"/><text fill="#000000" stroke="none" font-family="Arial" font-size="13px" font-style="normal" font-weight="normal" text-decoration="undefined" x="429" y="493" text-anchor="start" dominant-baseline="text-before-edge" transform="matrix(1 0 0 1 -102 -110)">0..*</text></g></g><g><g><path fill="none" stroke="none"/><text fill="#000000" stroke="none" font-family="Arial" font-size="13px" font-style="normal" font-weight="normal" text-decoration="undefined" x="669" y="285" text-anchor="start" dominant-baseline="text-before-edge" transform="matrix(1 0 0 1 -102 -110)">1</text></g></g><g><g><path fill="none" stroke="none"/><text fill="#000000" stroke="none" font-family="Arial" font-size="13px" font-style="normal" font-weight="normal" text-decoration="undefined" x="333" y="493" text-anchor="start" dominant-baseline="text-before-edge" transform="matrix(1 0 0 1 -102 -110)">1</text></g></g><g><g><path fill="none" stroke="none"/><text fill="#000000" stroke="none" font-family="Arial" font-size="13px" font-style="normal" font-weight="normal" text-decoration="undefined" x="373" y="173" text-anchor="start" dominant-baseline="text-before-edge" transform="matrix(1 0 0 1 -102 -110)">1</text></g></g><g><g><path fill="none" stroke="none"/><text fill="#000000" stroke="none" font-family="Arial" font-size="13px" font-style="normal" font-weight="normal" text-decoration="undefined" x="557" y="173" text-anchor="start" dominant-baseline="text-before-edge" transform="matrix(1 0 0 1 -102 -110)">0..*</text></g></g></g></svg>