<svg version="1.1" xmlns="http://www.w3.org/2000/svg" xmlns:xlink="http://www.w3.org/1999/xlink" width="1069" height="1004"><defs/><g><g><rect fill="#C0C0C0" stroke="none" x="295" y="231" width="840" height="984" transform="matrix(1 0 0 1 -70 -214)" fill-opacity="0.2"/></g><g><rect fill="#ffffff" stroke="none" x="288" y="224" width="840" height="984" transform="matrix(1 0 0 1 -70 -214)"/></g><g><path fill="none" stroke="#000000" paint-order="fill stroke markers" d=" M 218 10 L 1058 10 L 1058 994 L 218 994 L 218 10 Z Z" stroke-miterlimit="10" stroke-dasharray=""/></g><g><g><path fill="none" stroke="none"/><text fill="#000000" stroke="none" font-family="Arial" font-size="20px" font-style="normal" font-weight="bold" text-decoration="undefined" x="708.5" y="241" text-anchor="middle" dominant-baseline="central" transform="matrix(1 0 0 1 -70 -214)">DevBooks</text></g></g><g><path fill="#ffffff" stroke="none" paint-order="stroke fill markers" d=" M 21.519999999999996 412.39230769230767 C 21.519999999999996 398.36852211692303 32.480068096 387 46 387 C 59.519931904 387 70.47999999999999 398.36852211692303 70.47999999999999 412.39230769230767 C 70.47999999999999 426.4160932676923 59.519931904 437.78461538461534 46 437.78461538461534 C 32.480068096 437.78461538461534 21.519999999999996 426.4160932676923 21.519999999999996 412.39230769230767 Z"/></g><g><path fill="none" stroke="#000000" paint-order="fill stroke markers" d=" M 21.519999999999996 412.39230769230767 C 21.519999999999996 398.36852211692303 32.480068096 387 46 387 C 59.519931904 387 70.47999999999999 398.36852211692303 70.47999999999999 412.39230769230767 C 70.47999999999999 426.4160932676923 59.519931904 437.78461538461534 46 437.78461538461534 C 32.480068096 437.78461538461534 21.519999999999996 426.4160932676923 21.519999999999996 412.39230769230767 Z" stroke-miterlimit="10" stroke-dasharray=""/></g><g><path fill="none" stroke="#000000" paint-order="fill stroke markers" d=" M 46 437.78461538461534 L 46 486.5230769230769" stroke-miterlimit="10" stroke-dasharray=""/></g><g><path fill="none" stroke="#000000" paint-order="fill stroke markers" d=" M 20.08 456.0615384615385 L 71.91999999999999 456.0615384615385" stroke-miterlimit="10" stroke-dasharray=""/></g><g><path fill="none" stroke="#000000" paint-order="fill stroke markers" d=" M 46 486.5230769230769 L 10 537.3076923076923" stroke-miterlimit="10" stroke-dasharray=""/></g><g><path fill="none" stroke="#000000" paint-order="fill stroke markers" d=" M 46 486.5230769230769 L 82 537.3076923076923" stroke-miterlimit="10" stroke-dasharray=""/></g><g><g><path fill="none" stroke="none"/><text fill="#000000" stroke="none" font-family="Arial" font-size="13px" font-style="normal" font-weight="bold" text-decoration="undefined" x="116.5" y="765.8076923076923" text-anchor="middle" dominant-baseline="central" transform="matrix(1 0 0 1 -70 -214)">developer</text></g></g><g><path fill="#C0C0C0" stroke="none" paint-order="stroke fill markers" d=" M 321 413 C 321 393.11774720000005 363.9806592 377 417 377 C 470.0193408 377 513 393.11774720000005 513 413 C 513 432.88225279999995 470.0193408 449 417 449 C 363.9806592 449 321 432.88225279999995 321 413 Z" fill-opacity="0.2"/></g><g><path fill="#ffffff" stroke="none" paint-order="stroke fill markers" d=" M 314 406 C 314 386.11774720000005 356.9806592 370 410 370 C 463.0193408 370 506 386.11774720000005 506 406 C 506 425.88225279999995 463.0193408 442 410 442 C 356.9806592 442 314 425.88225279999995 314 406 Z"/></g><g><path fill="none" stroke="#000000" paint-order="fill stroke markers" d=" M 314 406 C 314 386.11774720000005 356.9806592 370 410 370 C 463.0193408 370 506 386.11774720000005 506 406 C 506 425.88225279999995 463.0193408 442 410 442 C 356.9806592 442 314 425.88225279999995 314 406 Z" stroke-miterlimit="10" stroke-dasharray=""/></g><g><g><path fill="none" stroke="none"/><text fill="#000000" stroke="none" font-family="Arial" font-size="13px" font-style="normal" font-weight="bold" text-decoration="undefined" x="480" y="621" text-anchor="middle" dominant-baseline="central" transform="matrix(1 0 0 1 -70 -214)">add book</text></g></g><g><path fill="#C0C0C0" stroke="none" paint-order="stroke fill markers" d=" M 313 521 C 313 498.90860799999996 357.77152 481 413 481 C 468.22848 481 513 498.90860799999996 513 521 C 513 543.091392 468.22848 561 413 561 C 357.77152 561 313 543.091392 313 521 Z" fill-opacity="0.2"/></g><g><path fill="#ffffff" stroke="none" paint-order="stroke fill markers" d=" M 306 514 C 306 491.90860799999996 350.77152 474 406 474 C 461.22848 474 506 491.90860799999996 506 514 C 506 536.091392 461.22848 554 406 554 C 350.77152 554 306 536.091392 306 514 Z"/></g><g><path fill="none" stroke="#000000" paint-order="fill stroke markers" d=" M 306 514 C 306 491.90860799999996 350.77152 474 406 474 C 461.22848 474 506 491.90860799999996 506 514 C 506 536.091392 461.22848 554 406 554 C 350.77152 554 306 536.091392 306 514 Z" stroke-miterlimit="10" stroke-dasharray=""/></g><g><g><path fill="none" stroke="none"/><text fill="#000000" stroke="none" font-family="Arial" font-size="13px" font-style="normal" font-weight="bold" text-decoration="undefined" x="476" y="729" text-anchor="middle" dominant-baseline="central" transform="matrix(1 0 0 1 -70 -214)">update book</text></g></g><g><path fill="#C0C0C0" stroke="none" paint-order="stroke fill markers" d=" M 305 617 C 305 594.908608 351.5623808 577 409 577 C 466.4376192 577 513 594.908608 513 617 C 513 639.091392 466.4376192 657 409 657 C 351.5623808 657 305 639.091392 305 617 Z" fill-opacity="0.2"/></g><g><path fill="#ffffff" stroke="none" paint-order="stroke fill markers" d=" M 298 610 C 298 587.908608 344.5623808 570 402 570 C 459.4376192 570 506 587.908608 506 610 C 506 632.091392 459.4376192 650 402 650 C 344.5623808 650 298 632.091392 298 610 Z"/></g><g><path fill="none" stroke="#000000" paint-order="fill stroke markers" d=" M 298 610 C 298 587.908608 344.5623808 570 402 570 C 459.4376192 570 506 587.908608 506 610 C 506 632.091392 459.4376192 650 402 650 C 344.5623808 650 298 632.091392 298 610 Z" stroke-miterlimit="10" stroke-dasharray=""/></g><g><g><path fill="none" stroke="none"/><text fill="#000000" stroke="none" font-family="Arial" font-size="13px" font-style="normal" font-weight="bold" text-decoration="undefined" x="472" y="825" text-anchor="middle" dominant-baseline="central" transform="matrix(1 0 0 1 -70 -214)">delete book</text></g></g><g><path fill="#C0C0C0" stroke="none" paint-order="stroke fill markers" d=" M 313 181 C 313 161.1177472 355.9806592 145 409 145 C 462.0193408 145 505 161.1177472 505 181 C 505 200.8822528 462.0193408 217 409 217 C 355.9806592 217 313 200.8822528 313 181 Z" fill-opacity="0.2"/></g><g><path fill="#ffffff" stroke="none" paint-order="stroke fill markers" d=" M 306 174 C 306 154.1177472 348.9806592 138 402 138 C 455.0193408 138 498 154.1177472 498 174 C 498 193.8822528 455.0193408 210 402 210 C 348.9806592 210 306 193.8822528 306 174 Z"/></g><g><path fill="none" stroke="#000000" paint-order="fill stroke markers" d=" M 306 174 C 306 154.1177472 348.9806592 138 402 138 C 455.0193408 138 498 154.1177472 498 174 C 498 193.8822528 455.0193408 210 402 210 C 348.9806592 210 306 193.8822528 306 174 Z" stroke-miterlimit="10" stroke-dasharray=""/></g><g><g><path fill="none" stroke="none"/><text fill="#000000" stroke="none" font-family="Arial" font-size="13px" font-style="normal" font-weight="bold" text-decoration="undefined" x="472" y="389" text-anchor="middle" dominant-baseline="central" transform="matrix(1 0 0 1 -70 -214)">view books list</text></g></g><g><path fill="#C0C0C0" stroke="none" paint-order="stroke fill markers" d=" M 665 97 C 665 79.32688639999998 704.3989376 65 753 65 C 801.6010624 65 841 79.32688639999998 841 97 C 841 114.67311360000002 801.6010624 129 753 129 C 704.3989376 129 665 114.67311360000002 665 97 Z" fill-opacity="0.2"/></g><g><path fill="#ffffff" stroke="none" paint-order="stroke fill markers" d=" M 658 90 C 658 72.32688639999998 697.3989376 58 746 58 C 794.6010624 58 834 72.32688639999998 834 90 C 834 107.67311360000002 794.6010624 122 746 122 C 697.3989376 122 658 107.67311360000002 658 90 Z"/></g><g><path fill="none" stroke="#000000" paint-order="fill stroke markers" d=" M 658 90 C 658 72.32688639999998 697.3989376 58 746 58 C 794.6010624 58 834 72.32688639999998 834 90 C 834 107.67311360000002 794.6010624 122 746 122 C 697.3989376 122 658 107.67311360000002 658 90 Z" stroke-miterlimit="10" stroke-dasharray=""/></g><g><g><path fill="none" stroke="none"/><text fill="#000000" stroke="none" font-family="Arial" font-size="13px" font-style="normal" font-weight="bold" text-decoration="undefined" x="816" y="305" text-anchor="middle" dominant-baseline="central" transform="matrix(1 0 0 1 -70 -214)">filter books</text></g></g><g><path fill="#C0C0C0" stroke="none" paint-order="stroke fill markers" d=" M 657 177 C 657 159.32688639999998 699.9806592 145 753 145 C 806.0193408 145 849 159.32688639999998 849 177 C 849 194.67311360000002 806.0193408 209 753 209 C 699.9806592 209 657 194.67311360000002 657 177 Z" fill-opacity="0.2"/></g><g><path fill="#ffffff" stroke="none" paint-order="stroke fill markers" d=" M 650 170 C 650 152.32688639999998 692.9806592 138 746 138 C 799.0193408 138 842 152.32688639999998 842 170 C 842 187.67311360000002 799.0193408 202 746 202 C 692.9806592 202 650 187.67311360000002 650 170 Z"/></g><g><path fill="none" stroke="#000000" paint-order="fill stroke markers" d=" M 650 170 C 650 152.32688639999998 692.9806592 138 746 138 C 799.0193408 138 842 152.32688639999998 842 170 C 842 187.67311360000002 799.0193408 202 746 202 C 692.9806592 202 650 187.67311360000002 650 170 Z" stroke-miterlimit="10" stroke-dasharray=""/></g><g><g><path fill="none" stroke="none"/><text fill="#000000" stroke="none" font-family="Arial" font-size="13px" font-style="normal" font-weight="bold" text-decoration="undefined" x="816" y="385" text-anchor="middle" dominant-baseline="central" transform="matrix(1 0 0 1 -70 -214)">sort books</text></g></g><g><path fill="#C0C0C0" stroke="none" paint-order="stroke fill markers" d=" M 673 265 C 673 247.32688639999998 712.3989376 233 761 233 C 809.6010624 233 849 247.32688639999998 849 265 C 849 282.6731136 809.6010624 297 761 297 C 712.3989376 297 673 282.6731136 673 265 Z" fill-opacity="0.2"/></g><g><path fill="#ffffff" stroke="none" paint-order="stroke fill markers" d=" M 666 258 C 666 240.32688639999998 705.3989376 226 754 226 C 802.6010624 226 842 240.32688639999998 842 258 C 842 275.6731136 802.6010624 290 754 290 C 705.3989376 290 666 275.6731136 666 258 Z"/></g><g><path fill="none" stroke="#000000" paint-order="fill stroke markers" d=" M 666 258 C 666 240.32688639999998 705.3989376 226 754 226 C 802.6010624 226 842 240.32688639999998 842 258 C 842 275.6731136 802.6010624 290 754 290 C 705.3989376 290 666 275.6731136 666 258 Z" stroke-miterlimit="10" stroke-dasharray=""/></g><g><g><path fill="none" stroke="none"/><text fill="#000000" stroke="none" font-family="Arial" font-size="13px" font-style="normal" font-weight="bold" text-decoration="undefined" x="824" y="473" text-anchor="middle" dominant-baseline="central" transform="matrix(1 0 0 1 -70 -214)">search book</text></g></g><g><path fill="#C0C0C0" stroke="none" paint-order="stroke fill markers" d=" M 297 717 C 297 697.1177472 345.3532416 681 405 681 C 464.64675839999995 681 513 697.1177472 513 717 C 513 736.8822528 464.64675839999995 753 405 753 C 345.3532416 753 297 736.8822528 297 717 Z" fill-opacity="0.2"/></g><g><path fill="#ffffff" stroke="none" paint-order="stroke fill markers" d=" M 290 710 C 290 690.1177472 338.3532416 674 398 674 C 457.64675839999995 674 506 690.1177472 506 710 C 506 729.8822528 457.64675839999995 746 398 746 C 338.3532416 746 290 729.8822528 290 710 Z"/></g><g><path fill="none" stroke="#000000" paint-order="fill stroke markers" d=" M 290 710 C 290 690.1177472 338.3532416 674 398 674 C 457.64675839999995 674 506 690.1177472 506 710 C 506 729.8822528 457.64675839999995 746 398 746 C 338.3532416 746 290 729.8822528 290 710 Z" stroke-miterlimit="10" stroke-dasharray=""/></g><g><g><path fill="none" stroke="none"/><text fill="#000000" stroke="none" font-family="Arial" font-size="13px" font-style="normal" font-weight="bold" text-decoration="undefined" x="468" y="925" text-anchor="middle" dominant-baseline="central" transform="matrix(1 0 0 1 -70 -214)">Borrow a book</text></g></g><g><path fill="#C0C0C0" stroke="none" paint-order="stroke fill markers" d=" M 305 817 C 305 794.908608 351.5623808 777 409 777 C 466.4376192 777 513 794.908608 513 817 C 513 839.091392 466.4376192 857 409 857 C 351.5623808 857 305 839.091392 305 817 Z" fill-opacity="0.2"/></g><g><path fill="#ffffff" stroke="none" paint-order="stroke fill markers" d=" M 298 810 C 298 787.908608 344.5623808 770 402 770 C 459.4376192 770 506 787.908608 506 810 C 506 832.091392 459.4376192 850 402 850 C 344.5623808 850 298 832.091392 298 810 Z"/></g><g><path fill="none" stroke="#000000" paint-order="fill stroke markers" d=" M 298 810 C 298 787.908608 344.5623808 770 402 770 C 459.4376192 770 506 787.908608 506 810 C 506 832.091392 459.4376192 850 402 850 C 344.5623808 850 298 832.091392 298 810 Z" stroke-miterlimit="10" stroke-dasharray=""/></g><g><g><path fill="none" stroke="none"/><text fill="#000000" stroke="none" font-family="Arial" font-size="13px" font-style="normal" font-weight="bold" text-decoration="undefined" x="472" y="1025" text-anchor="middle" dominant-baseline="central" transform="matrix(1 0 0 1 -70 -214)">return book</text></g></g><g><path fill="#C0C0C0" stroke="none" paint-order="stroke fill markers" d=" M 305 929 C 305 906.908608 349.77152 889 405 889 C 460.22848 889 505 906.908608 505 929 C 505 951.091392 460.22848 969 405 969 C 349.77152 969 305 951.091392 305 929 Z" fill-opacity="0.2"/></g><g><path fill="#ffffff" stroke="none" paint-order="stroke fill markers" d=" M 298 922 C 298 899.908608 342.77152 882 398 882 C 453.22848 882 498 899.908608 498 922 C 498 944.091392 453.22848 962 398 962 C 342.77152 962 298 944.091392 298 922 Z"/></g><g><path fill="none" stroke="#000000" paint-order="fill stroke markers" d=" M 298 922 C 298 899.908608 342.77152 882 398 882 C 453.22848 882 498 899.908608 498 922 C 498 944.091392 453.22848 962 398 962 C 342.77152 962 298 944.091392 298 922 Z" stroke-miterlimit="10" stroke-dasharray=""/></g><g><g><path fill="none" stroke="none"/><text fill="#000000" stroke="none" font-family="Arial" font-size="13px" font-style="normal" font-weight="bold" text-decoration="undefined" x="468" y="1137" text-anchor="middle" dominant-baseline="central" transform="matrix(1 0 0 1 -70 -214)">view book's stats</text></g></g><g><path fill="#C0C0C0" stroke="none" paint-order="stroke fill markers" d=" M 785 501 C 785 481.11774720000005 840.5166848 465 909 465 C 977.4833152000001 465 1033 481.11774720000005 1033 501 C 1033 520.8822528 977.4833152000001 537 909 537 C 840.5166848 537 785 520.8822528 785 501 Z" fill-opacity="0.2"/></g><g><path fill="#ffffff" stroke="none" paint-order="stroke fill markers" d=" M 778 494 C 778 474.11774720000005 833.5166848 458 902 458 C 970.4833152000001 458 1026 474.11774720000005 1026 494 C 1026 513.8822528 970.4833152000001 530 902 530 C 833.5166848 530 778 513.8822528 778 494 Z"/></g><g><path fill="none" stroke="#000000" paint-order="fill stroke markers" d=" M 778 494 C 778 474.11774720000005 833.5166848 458 902 458 C 970.4833152000001 458 1026 474.11774720000005 1026 494 C 1026 513.8822528 970.4833152000001 530 902 530 C 833.5166848 530 778 513.8822528 778 494 Z" stroke-miterlimit="10" stroke-dasharray=""/></g><g><g><path fill="none" stroke="none"/><text fill="#000000" stroke="none" font-family="Arial" font-size="13px" font-style="normal" font-weight="bold" text-decoration="undefined" x="972" y="709" text-anchor="middle" dominant-baseline="central" transform="matrix(1 0 0 1 -70 -214)">Login</text></g></g><g><path fill="none" stroke="#000000" paint-order="fill stroke markers" d=" M 460 211 L 844 457" stroke-miterlimit="10" stroke-dasharray="3"/></g><g><path fill="none" stroke="#000000" paint-order="fill stroke markers" d=" M 833.1719712508367 455.06252912091736 L 844 457 L 837.7134262415345 447.973428647633" stroke-miterlimit="10" stroke-dasharray=""/></g><g><rect fill="#ffffff" stroke="none" x="711" y="516" width="55.65625" height="13" transform="matrix(1 0 0 1 -70 -214)"/></g><g><g><path fill="none" stroke="none"/><text fill="#000000" stroke="none" font-family="Arial" font-size="13px" font-style="normal" font-weight="normal" text-decoration="undefined" x="738.828125" y="522.5" text-anchor="middle" dominant-baseline="central" transform="matrix(1 0 0 1 -70 -214)">«include»</text></g></g><g><path fill="none" stroke="#000000" paint-order="fill stroke markers" d=" M 657 112 L 499 150" stroke-miterlimit="10" stroke-dasharray="3"/></g><g><path fill="none" stroke="#000000" paint-order="fill stroke markers" d=" M 507.89657260891033 143.53076543829286 L 499 150 L 509.86526644874846 151.71638719340945" stroke-miterlimit="10" stroke-dasharray=""/></g><g><rect fill="#ffffff" stroke="none" x="629" y="368" width="53.49169921875" height="13" transform="matrix(1 0 0 1 -70 -214)"/></g><g><g><path fill="none" stroke="none"/><text fill="#000000" stroke="none" font-family="Arial" font-size="13px" font-style="normal" font-weight="normal" text-decoration="undefined" x="655.745849609375" y="374.5" text-anchor="middle" dominant-baseline="central" transform="matrix(1 0 0 1 -70 -214)">«extend»</text></g></g><g><path fill="none" stroke="#000000" paint-order="fill stroke markers" d=" M 649 171 L 499 173" stroke-miterlimit="10" stroke-dasharray="3"/></g><g><path fill="none" stroke="#000000" paint-order="fill stroke markers" d=" M 509.105649714156 168.6553660850679 L 499 173 L 509.2178935441972 177.0736533381541" stroke-miterlimit="10" stroke-dasharray=""/></g><g><rect fill="#ffffff" stroke="none" x="618" y="409" width="53.49169921875" height="13" transform="matrix(1 0 0 1 -70 -214)"/></g><g><g><path fill="none" stroke="none"/><text fill="#000000" stroke="none" font-family="Arial" font-size="13px" font-style="normal" font-weight="normal" text-decoration="undefined" x="644.745849609375" y="415.5" text-anchor="middle" dominant-baseline="central" transform="matrix(1 0 0 1 -70 -214)">«extend»</text></g></g><g><path fill="none" stroke="#000000" paint-order="fill stroke markers" d=" M 665 237 L 499 197" stroke-miterlimit="10" stroke-dasharray="3"/></g><g><path fill="none" stroke="#000000" paint-order="fill stroke markers" d=" M 509.86600770762857 195.28831179890858 L 499 197 L 507.89377406875826 203.47308140022074" stroke-miterlimit="10" stroke-dasharray=""/></g><g><rect fill="#ffffff" stroke="none" x="618" y="454" width="53.49169921875" height="13" transform="matrix(1 0 0 1 -70 -214)"/></g><g><g><path fill="none" stroke="none"/><text fill="#000000" stroke="none" font-family="Arial" font-size="13px" font-style="normal" font-weight="normal" text-decoration="undefined" x="644.745849609375" y="460.5" text-anchor="middle" dominant-baseline="central" transform="matrix(1 0 0 1 -70 -214)">«extend»</text></g></g><g><path fill="none" stroke="#000000" paint-order="fill stroke markers" d=" M 83 474 L 313 426" stroke-miterlimit="10" stroke-dasharray=""/></g><g><path fill="none" stroke="#000000" paint-order="fill stroke markers" d=" M 83 495 L 297 572" stroke-miterlimit="10" stroke-dasharray=""/></g><g><path fill="none" stroke="#000000" paint-order="fill stroke markers" d=" M 83 485 L 305 505" stroke-miterlimit="10" stroke-dasharray=""/></g><g><path fill="none" stroke="#000000" paint-order="fill stroke markers" d=" M 83 506 L 341 673" stroke-miterlimit="10" stroke-dasharray=""/></g><g><path fill="none" stroke="#000000" paint-order="fill stroke markers" d=" M 83 516 L 358 769" stroke-miterlimit="10" stroke-dasharray=""/></g><g><path fill="none" stroke="#000000" paint-order="fill stroke markers" d=" M 83 528 L 365 881" stroke-miterlimit="10" stroke-dasharray=""/></g><g><path fill="none" stroke="#000000" paint-order="fill stroke markers" d=" M 446 881 L 858 531" stroke-miterlimit="10" stroke-dasharray="3"/></g><g><path fill="none" stroke="#000000" paint-order="fill stroke markers" d=" M 852.9801867009038 540.7878227631184 L 858 531 L 847.5294201270657 534.3714918247717" stroke-miterlimit="10" stroke-dasharray=""/></g><g><rect fill="#ffffff" stroke="none" x="675" y="891" width="55.65625" height="13" transform="matrix(1 0 0 1 -70 -214)"/></g><g><g><path fill="none" stroke="none"/><text fill="#000000" stroke="none" font-family="Arial" font-size="13px" font-style="normal" font-weight="normal" text-decoration="undefined" x="702.828125" y="897.5" text-anchor="middle" dominant-baseline="central" transform="matrix(1 0 0 1 -70 -214)">«include»</text></g></g><g><path fill="none" stroke="#000000" paint-order="fill stroke markers" d=" M 467 769 L 843 531" stroke-miterlimit="10" stroke-dasharray="3"/></g><g><path fill="none" stroke="#000000" paint-order="fill stroke markers" d=" M 836.6644132270928 539.9922377772701 L 843 531 L 832.161591319732 532.8785359404311" stroke-miterlimit="10" stroke-dasharray=""/></g><g><rect fill="#ffffff" stroke="none" x="681" y="832" width="55.65625" height="13" transform="matrix(1 0 0 1 -70 -214)"/></g><g><g><path fill="none" stroke="none"/><text fill="#000000" stroke="none" font-family="Arial" font-size="13px" font-style="normal" font-weight="normal" text-decoration="undefined" x="708.828125" y="838.5" text-anchor="middle" dominant-baseline="central" transform="matrix(1 0 0 1 -70 -214)">«include»</text></g></g><g><path fill="none" stroke="#000000" paint-order="fill stroke markers" d=" M 484 673 L 816 531" stroke-miterlimit="10" stroke-dasharray="3"/></g><g><path fill="none" stroke="#000000" paint-order="fill stroke markers" d=" M 808.311514823631 538.8668415322005 L 816 531 L 805.0007230007983 531.1261169886761" stroke-miterlimit="10" stroke-dasharray=""/></g><g><rect fill="#ffffff" stroke="none" x="681" y="782" width="55.65625" height="13" transform="matrix(1 0 0 1 -70 -214)"/></g><g><g><path fill="none" stroke="none"/><text fill="#000000" stroke="none" font-family="Arial" font-size="13px" font-style="normal" font-weight="normal" text-decoration="undefined" x="708.828125" y="788.5" text-anchor="middle" dominant-baseline="central" transform="matrix(1 0 0 1 -70 -214)">«include»</text></g></g><g><path fill="none" stroke="#000000" paint-order="fill stroke markers" d=" M 507 586 L 777 523" stroke-miterlimit="10" stroke-dasharray="3"/></g><g><path fill="none" stroke="#000000" paint-order="fill stroke markers" d=" M 768.0596955240267 529.4086625653791 L 777 523 L 766.1466413208509 521.2098588374828" stroke-miterlimit="10" stroke-dasharray=""/></g><g><rect fill="#ffffff" stroke="none" x="678" y="732" width="55.65625" height="13" transform="matrix(1 0 0 1 -70 -214)"/></g><g><g><path fill="none" stroke="none"/><text fill="#000000" stroke="none" font-family="Arial" font-size="13px" font-style="normal" font-weight="normal" text-decoration="undefined" x="705.828125" y="738.5" text-anchor="middle" dominant-baseline="central" transform="matrix(1 0 0 1 -70 -214)">«include»</text></g></g><g><path fill="none" stroke="#000000" paint-order="fill stroke markers" d=" M 507 510 L 777 499" stroke-miterlimit="10" stroke-dasharray="3"/></g><g><path fill="none" stroke="#000000" paint-order="fill stroke markers" d=" M 767.0171054228769 503.619720322925 L 777 499 L 766.6743919811203 495.2076631161714" stroke-miterlimit="10" stroke-dasharray=""/></g><g><rect fill="#ffffff" stroke="none" x="683" y="682" width="55.65625" height="13" transform="matrix(1 0 0 1 -70 -214)"/></g><g><g><path fill="none" stroke="none"/><text fill="#000000" stroke="none" font-family="Arial" font-size="13px" font-style="normal" font-weight="normal" text-decoration="undefined" x="710.828125" y="688.5" text-anchor="middle" dominant-baseline="central" transform="matrix(1 0 0 1 -70 -214)">«include»</text></g></g><g><path fill="none" stroke="#000000" paint-order="fill stroke markers" d=" M 507 423 L 777 472" stroke-miterlimit="10" stroke-dasharray="3"/></g><g><path fill="none" stroke="#000000" paint-order="fill stroke markers" d=" M 766.248986531153 474.3271676760969 L 777 472 L 767.7523294268241 466.04344151627663" stroke-miterlimit="10" stroke-dasharray=""/></g><g><rect fill="#ffffff" stroke="none" x="690" y="625" width="55.65625" height="13" transform="matrix(1 0 0 1 -70 -214)"/></g><g><g><path fill="none" stroke="none"/><text fill="#000000" stroke="none" font-family="Arial" font-size="13px" font-style="normal" font-weight="normal" text-decoration="undefined" x="717.828125" y="631.5" text-anchor="middle" dominant-baseline="central" transform="matrix(1 0 0 1 -70 -214)">«include»</text></g></g></g></svg>